<?xml version="1.0" encoding="UTF-8"?>
<svg id="Layer_1" data-name="Layer 1" xmlns="http://www.w3.org/2000/svg" viewBox="0 0 612 792">
  <defs>
    <style>
      .cls-1, .cls-2, .cls-3, .cls-4, .cls-5 {
        fill: #231f20;
      }

      .cls-6, .cls-7, .cls-8, .cls-2, .cls-9, .cls-10, .cls-11, .cls-12, .cls-13, .cls-14, .cls-3, .cls-4, .cls-15, .cls-5 {
        stroke-miterlimit: 10;
      }

      .cls-6, .cls-7, .cls-8, .cls-2, .cls-9, .cls-11, .cls-12, .cls-13, .cls-14, .cls-3, .cls-4, .cls-15, .cls-5 {
        stroke: #522546;
      }

      .cls-6, .cls-7, .cls-16 {
        fill: #aad7f3;
      }

      .cls-6, .cls-10, .cls-5 {
        stroke-width: 5px;
      }

      .cls-7, .cls-8, .cls-9, .cls-11, .cls-3 {
        stroke-width: 4px;
      }

      .cls-8 {
        fill: #92b0dc;
      }

      .cls-2 {
        stroke-linecap: round;
      }

      .cls-2, .cls-12, .cls-13, .cls-4, .cls-15 {
        stroke-width: 3px;
      }

      .cls-17 {
        fill: #f3f5fb;
      }

      .cls-9, .cls-18 {
        fill: #446eb6;
      }

      .cls-19, .cls-15 {
        fill: #2e3192;
      }

      .cls-10 {
        stroke: #446eb6;
      }

      .cls-10, .cls-11, .cls-12 {
        fill: none;
      }

      .cls-13 {
        fill: #fff;
      }

      .cls-14 {
        fill: #6d6e71;
        stroke-width: .75px;
      }

      .cls-20 {
        fill: #99c1da;
      }

      .cls-21 {
        fill: #522546;
      }
    </style>
  </defs>
  <g id="manolia">
    <path id="cheveux" class="cls-9" d="M249.22,475.41s-47.51-13.73-52.55-137.88,106.09-100.24,106.09-100.24c0,0,106.21-29.65,111.01,100.24s-54.14,137.88-54.14,137.88h-110.41Z"/>
    <g id="chaussure_droite" data-name="chaussure droite">
      <rect class="cls-6" x="332.76" y="554.98" width="23.83" height="63.84" transform="translate(689.35 1173.81) rotate(-180)"/>
      <g>
        <rect class="cls-4" x="329.15" y="604.83" width="31.09" height="21.31" transform="translate(689.38 1230.96) rotate(-180)"/>
        <path class="cls-1" d="M330.64,595.43c-3.12,0-5.65,2.53-5.65,5.65h0c0,3.12,2.53,5.65,5.65,5.65h14.05s14.05,0,14.05,0c3.12,0,5.65-2.53,5.65-5.65h0c0-3.12-2.53-5.65-5.65-5.65"/>
        <path class="cls-4" d="M358.73,606.74c3.12,0,5.65-2.53,5.65-5.65h0c0-3.12-2.53-5.65-5.65-5.65"/>
        <path class="cls-4" d="M330.62,595.43c-3.12,0-5.65,2.53-5.65,5.65h0c0,3.12,2.53,5.65,5.65,5.65"/>
        <path class="cls-4" d="M358.73,595.43c3.12,0,5.65-2.53,5.65-5.65h0c0-3.12-2.53-5.65-5.65-5.65h-28.1c-3.12,0-5.65,2.53-5.65,5.65h0c0,3.12,2.53,5.65,5.65,5.65"/>
        <line class="cls-2" x1="336.41" y1="595.43" x2="346.53" y2="595.43"/>
      </g>
      <path class="cls-13" d="M445.25,670.74l1.24,5.64c.59,2.7-1.47,5.26-4.23,5.26h-112.36c-14.58,0-27.6-14.96-21.01-27.96l8.22-24.03,112.34,15.27c8.35,1.72,13.98,17.49,15.8,25.82Z"/>
      <path class="cls-15" d="M382.95,630.42c33.41-12.91,51.23-3.28,52.51,30.25.02.53-.6.82-1,.47-2.82-2.51-10.67-9.15-15.08-9.46-5.44-.38-12.85,8.72-19.93,10.4-7.08,1.68-47.36,4.38-54.24,0s-34.7-34.37-29.65-41.1c2.15-2.86,9.77-3.29,17.83-2.84,11.69.66,23.22,3.06,34.28,6.93l15.28,5.35Z"/>
      <g>
        <g>
          <path class="cls-19" d="M374.25,634.79l-21.25-2.5c-1.81-.21-3.32-2.01-3.77-4.47l-2.41-13.12c-.7-3.79,1.34-7.49,4.13-7.49h23.66c2.36,0,4.26,2.68,4.26,5.99v15.62c0,3.51-2.13,6.26-4.62,5.97Z"/>
          <path class="cls-21" d="M374.25,632.91c-6.25-.74-12.51-1.47-18.76-2.21-.82-.1-1.66-.13-2.47-.29.29.06.11.05-.08-.05-.15-.08-.31-.13-.45-.23-.56-.39-.93-1.08-1.16-1.7-.19-.52-.28-1.07-.38-1.61-.65-3.51-1.29-7.01-1.94-10.52-.23-1.22-.55-2.47-.43-3.72.14-1.49.88-3.43,2.58-3.49,2.87-.11,5.77,0,8.64,0,3.91,0,7.83,0,11.74,0,.96,0,1.94-.04,2.9,0,1.83.09,2.51,2.37,2.55,3.92.09,2.95,0,5.92,0,8.88,0,1.81,0,3.63,0,5.44s.08,2.72-.51,3.98c-.45.96-1.13,1.69-2.23,1.61-2.41-.17-2.4,3.58,0,3.75,3.49.25,5.86-3.04,6.35-6.17.21-1.36.15-2.75.15-4.12,0-4.04,0-8.07,0-12.11,0-2.03-.17-4.05-1.24-5.84-1.14-1.92-2.97-3.07-5.2-3.09-3.34-.03-6.69,0-10.03,0h-11.86c-1.26,0-2.46-.05-3.65.51-3.06,1.45-4.25,5.31-3.88,8.46.41,3.52,1.26,7.02,1.9,10.5.72,3.93,1.43,8.76,6.29,9.36,6.82.85,13.66,1.61,20.49,2.41l.7.08c1.01.12,1.88-.95,1.88-1.88,0-1.11-.86-1.76-1.88-1.88Z"/>
        </g>
        <g>
          <path class="cls-19" d="M351.79,614.7c-.7-3.79,1.34-7.49,4.13-7.49h23.66c2.36,0,4.26,2.68,4.26,5.99v15.62c0,3.51-2.13,6.26-4.62,5.97l-21.25-2.5c-1.81-.21-3.32-2.01-3.77-4.47"/>
          <path class="cls-21" d="M353.6,614.2c-.27-1.69.18-4.86,2.32-5.12.45-.05.94,0,1.4,0h8.69c3.32,0,6.65,0,9.97,0,1.51,0,3.94-.51,5,.83,1.49,1.89.99,5.22.99,7.48,0,3.25,0,6.51,0,9.76,0,2.02.04,5.96-2.79,5.75-2.08-.16-4.17-.49-6.25-.74-3.74-.44-7.47-.88-11.21-1.32-1.12-.13-2.23-.26-3.35-.39-.11-.01-.22-.02-.32-.04s.31.24-.18-.07c-1.13-.74-1.58-1.7-1.86-3.03-.49-2.36-4.11-1.36-3.62,1,.61,2.9,2.51,5.46,5.58,5.85.64.08,1.29.15,1.93.23,3.51.41,7.02.83,10.54,1.24,2.81.33,5.61.68,8.42.99,4.5.49,6.83-4.09,6.86-7.98.02-3.04,0-6.08,0-9.11,0-2.86.43-6.27-.38-9.07s-2.82-4.99-5.76-5.12c-.55-.02-1.11,0-1.66,0-3.39,0-6.78,0-10.17,0h-10.79c-1.36,0-2.65.07-3.85.85-2.95,1.92-3.65,5.78-3.13,9.01.16,1,1.41,1.56,2.31,1.31,1.06-.3,1.47-1.3,1.31-2.31h0Z"/>
        </g>
      </g>
      <path class="cls-13" d="M358.03,639.69c6.14-9.2,14.97-13.34,26.97-11.54,2.37-1.01,3.46-3.75,2.45-6.12h0c-1.01-2.37-3.75-3.46-6.12-2.45-11.27.72-19.71,5.31-26.97,11.54-2.37,1.01-3.46,3.75-2.45,6.12h0c1.01,2.37,3.75,3.46,6.12,2.45Z"/>
      <path class="cls-13" d="M363.56,644.26c6.14-9.2,14.97-13.34,26.97-11.54,2.37-1.01,3.46-3.75,2.45-6.12h0c-1.01-2.37-3.75-3.46-6.12-2.45-11.27.72-19.71,5.31-26.97,11.54-2.37,1.01-3.46,3.75-2.45,6.12h0c1.01,2.37,3.75,3.46,6.12,2.45Z"/>
      <path class="cls-19" d="M429.05,647.33c.38.19.89-.11.81-.48-5.04-23.66-21.64-27.95-49.13-14l-12.57,7.95"/>
      <path class="cls-12" d="M434.47,661.15c.39.35,1.02.05,1-.47-1.28-33.53-19.11-43.16-52.51-30.25l-15.57,9.12"/>
    </g>
    <g id="hoodie">
      <g id="chaussure_gauche" data-name="chaussure gauche">
        <rect class="cls-6" x="255.41" y="553.77" width="23.83" height="63.84"/>
        <g>
          <rect class="cls-4" x="251.77" y="603.61" width="31.09" height="21.31"/>
          <path class="cls-1" d="M281.36,594.22c3.12,0,5.65,2.53,5.65,5.65h0c0,3.12-2.53,5.65-5.65,5.65h-28.1c-3.12,0-5.65-2.53-5.65-5.65h0c0-3.12,2.53-5.65,5.65-5.65"/>
          <path class="cls-4" d="M253.27,605.52c-3.12,0-5.65-2.53-5.65-5.65h0c0-3.12,2.53-5.65,5.65-5.65"/>
          <path class="cls-4" d="M281.38,594.22c3.12,0,5.65,2.53,5.65,5.65h0c0,3.12-2.53,5.65-5.65,5.65"/>
          <path class="cls-4" d="M253.27,594.22h9.32-9.32c-3.12,0-5.65-2.53-5.65-5.65h0c0-3.12,2.53-5.65,5.65-5.65h28.1c3.12,0,5.65,2.53,5.65,5.65h0c0,3.12-2.53,5.65-5.65,5.65"/>
        </g>
        <path class="cls-13" d="M166.75,669.52l-1.24,5.64c-.59,2.7,1.47,5.26,4.23,5.26h112.36c14.58,0,27.6-14.96,21.01-27.96l-8.22-24.03-112.34,15.27c-8.35,1.72-13.98,17.49-15.8,25.82Z"/>
        <path class="cls-15" d="M229.05,629.21c-33.41-12.91-51.23-3.28-52.51,30.25-.02.53.6.82,1,.47,2.82-2.51,10.67-9.15,15.08-9.46,5.44-.38,12.85,8.72,19.93,10.4s47.36,4.38,54.24,0,34.7-34.37,29.65-41.1c-2.15-2.86-9.77-3.29-17.83-2.84-11.69.66-23.22,3.06-34.28,6.93l-15.28,5.35Z"/>
        <g>
          <g>
            <path class="cls-19" d="M237.75,633.57l21.25-2.5c1.81-.21,3.32-2.01,3.77-4.47l2.41-13.12c.7-3.79-1.34-7.49-4.13-7.49h-23.66c-2.36,0-4.26,2.68-4.26,5.99v15.62c0,3.51,2.13,6.26,4.62,5.97Z"/>
            <path class="cls-21" d="M237.75,635.45c6.71-.79,13.42-1.58,20.12-2.37,1.58-.19,3.03-.41,4.29-1.51,1.61-1.41,2.22-3.41,2.6-5.44.7-3.79,1.39-7.58,2.09-11.37.44-2.38.48-4.7-.58-6.94s-2.97-3.64-5.41-3.7c-3.21-.09-6.44,0-9.65,0-4.03,0-8.06,0-12.09,0-1.05,0-2.17-.09-3.19.22-3.21.98-4.63,4.57-4.68,7.65-.06,3.38,0,6.76,0,10.14,0,3.87-.66,8.68,2.34,11.68,1.1,1.1,2.6,1.75,4.16,1.64,2.39-.17,2.41-3.92,0-3.75-3.45.25-2.75-5.88-2.75-8.07v-10.89c0-1.55.09-3.42,1.41-4.47.65-.52,1.41-.4,2.19-.4h10.49c3.52,0,7.04,0,10.56,0,.71,0,1.57-.14,2.19.26,1.62,1.04,1.76,3.52,1.46,5.21-.61,3.46-1.27,6.92-1.91,10.38-.21,1.14-.33,2.4-.73,3.49-.22.59-.55,1.19-1.05,1.59-.17.14-.34.21-.52.32-.16.1-.46.13-.12.07-.24.05-.49.06-.73.09-6.65.78-13.29,1.57-19.94,2.35l-.56.07c-1.01.12-1.88.78-1.88,1.88,0,.92.86,1.99,1.88,1.88Z"/>
          </g>
          <g>
            <path class="cls-19" d="M260.21,613.49c.7-3.79-1.34-7.49-4.13-7.49h-23.66c-2.36,0-4.26,2.68-4.26,5.99v15.62c0,3.51,2.13,6.26,4.62,5.97l21.25-2.5c1.81-.21,3.32-2.01,3.77-4.47"/>
            <path class="cls-21" d="M262.01,613.98c.71-4.45-1.23-9.83-6.41-9.86-2.87-.02-5.75,0-8.63,0-3.65,0-7.3,0-10.95,0-2.64,0-5.41-.38-7.45,1.71-2.58,2.64-2.3,6.32-2.3,9.7,0,3.58,0,7.15,0,10.73,0,1.39-.01,2.78.39,4.13.75,2.55,2.72,4.94,5.54,5.08.73.04,1.49-.12,2.21-.21l4.54-.53,12.16-1.43c.96-.11,1.92-.22,2.88-.34,3.09-.39,5-2.92,5.61-5.85.49-2.35-3.12-3.36-3.62-1-.22,1.03-.59,2.29-1.56,2.87-.14.08-.92.32-.42.23-.07.01-.15.01-.22.03-.83.13-1.67.2-2.5.29l-9.73,1.15-8.08.95c-.78.09-1.44.21-2.09-.36-1.15-.99-1.34-2.63-1.35-4.06,0-2.88,0-5.77,0-8.65,0-2.31-.12-4.65,0-6.96.08-1.42.74-3.57,2.41-3.72.6-.06,1.24,0,1.84,0h9.09c3.51,0,7.03,0,10.54,0,.7,0,1.44-.07,2.14,0,2.16.21,2.61,3.44,2.34,5.12-.16,1.01.26,2.01,1.31,2.31.89.25,2.15-.31,2.31-1.31h0Z"/>
          </g>
        </g>
        <path class="cls-13" d="M253.97,638.48c-6.14-9.2-14.97-13.34-26.97-11.54-2.37-1.01-3.46-3.75-2.45-6.12h0c1.01-2.37,3.75-3.46,6.12-2.45,11.27.72,19.71,5.31,26.97,11.54,2.37,1.01,3.46,3.75,2.45,6.12h0c-1.01,2.37-3.75,3.46-6.12,2.45Z"/>
        <path class="cls-19" d="M182.95,646.12c-.38.19-.89-.11-.81-.48,5.04-23.66,21.64-27.95,49.13-14l12.57,7.95"/>
        <path class="cls-12" d="M177.53,659.93c-.39.35-1.02.05-1-.47,1.28-33.53,19.11-43.16,52.51-30.25l15.57,9.12"/>
        <path class="cls-13" d="M248.44,643.05c-6.14-9.2-14.97-13.34-26.97-11.54-2.37-1.01-3.46-3.75-2.45-6.12h0c1.01-2.37,3.75-3.46,6.12-2.45,11.27.72,19.71,5.31,26.97,11.54,2.37,1.01,3.46,3.75,2.45,6.12h0c-1.01,2.37-3.75,3.46-6.12,2.45Z"/>
      </g>
      <ellipse class="cls-3" cx="306.06" cy="425.75" rx="80.09" ry="40.71"/>
      <path class="cls-5" d="M355.85,554.66c-33.14,5.22-67.16,4.98-101.94,0-3.83,0-6.94-3.11-6.94-6.94v-15.07h115.82v15.07c0,3.83-3.11,6.94-6.94,6.94Z"/>
      <path class="cls-5" d="M214.68,568.63c-9.57-.78-17.69-3-24.22-6.81-2.53-.71-4.01-3.35-3.3-5.88l3.8-13.53,33.4,9.39-3.8,13.53c-.71,2.53-3.35,4.01-5.88,3.3Z"/>
      <path class="cls-5" d="M264.08,432.64c-39.13,27.53-64.31,66.89-80.82,113.62,14.63,8.52,30.73,11.79,48.55,8.85,4.47-30.83,15.17-58.92,32-84.31"/>
      <g id="bras_droit" data-name="bras droit">
        <path class="cls-5" d="M393.43,571.51c9.57-.78,17.69-3,24.22-6.81,2.53-.71,4.01-3.35,3.3-5.88l-3.8-13.53-33.4,9.39,3.8,13.53c.71,2.53,3.35,4.01,5.88,3.3Z"/>
        <path class="cls-5" d="M343.34,434.96c39.13,27.53,64.31,66.89,80.82,113.62-14.63,8.52-30.73,11.79-48.55,8.85-4.47-30.83-15.17-58.92-32-84.31"/>
      </g>
      <path class="cls-5" d="M349.41,451.7c11.23,23.37,19.01,46.49,22.87,69.31,1.56,9.2-4.73,17.87-13.96,19.2-34.35,4.96-70.49,4.37-108-.46-9.27-1.19-15.7-9.74-14.3-18.98,3.66-24.17,12.72-47.23,25.08-69.62"/>
      <ellipse class="cls-1" cx="306.55" cy="428.13" rx="46.81" ry="14.32"/>
      <path class="cls-21" d="M350.86,428.13c0,.22-.14.85.03.12-.05.21-.09.41-.14.62-.02.07-.25.71-.09.31s-.12.23-.16.3c-.11.2-.24.39-.36.59-.37.58.12-.1-.17.22-.31.34-.62.68-.97.99-.63.57-1.36,1.08-2.49,1.73-1.07.61-2.32,1.21-3.29,1.6-7.12,2.84-14.89,4.02-22.48,4.68-1.35.12-2.5,1.06-2.5,2.5,0,1.26,1.15,2.62,2.5,2.5,6.96-.61,13.99-1.6,20.66-3.73,4.25-1.36,9.12-3.23,12.11-6.73,1.39-1.62,2.32-3.52,2.35-5.69.05-3.22-4.95-3.22-5,0h0Z"/>
      <path class="cls-21" d="M290.3,439.07c-6.99-.8-14.21-2.08-20.72-4.83-.98-.41-2.11-.97-3.09-1.53-.52-.3-1.03-.61-1.52-.96-.68-.47-.37-.23-.95-.75-.31-.28-.6-.58-.88-.88-.47-.49,0,.07-.2-.25-.1-.15-.2-.3-.29-.46-.04-.06-.36-.7-.19-.32s-.08-.26-.11-.33c-.05-.16-.06-.32-.11-.48.2.66.02.11.02-.14-.06-3.21-5.06-3.22-5,0,.09,5.21,5.31,8.43,9.54,10.3,7.41,3.27,15.51,4.71,23.51,5.63,1.34.15,2.5-1.26,2.5-2.5,0-1.48-1.15-2.34-2.5-2.5h0Z"/>
    </g>
    <g id="tete">
      <path class="cls-7" d="M393.29,345.21c1.27,42.41-59.17,79.94-81.06,85.13-3.72.88-7.1.89-10.81,0-22.34-5.35-82.39-42.96-81.06-85.13"/>
      <g>
        <path class="cls-16" d="M218.11,344.75c.15-4.74,2.63-8.91,3.46-12.98.94-4.62.42-9.44,2.17-13.26,1.92-4.18,5.97-6.84,8.77-10.14s4.85-7.79,8.54-10.33,8.42-2.78,12.65-4.53c3.95-1.64,7.56-4.88,12.02-5.98,4.16-1.02,8.9.13,13.44-.48,4.27-.58,8.5-2.97,13.05-3.23s8.82,1.64,13.36,1.64,9.03-1.88,13.36-1.64c4.55.26,8.79,2.65,13.06,3.23,4.54.61,9.28-.54,13.45.48,4.47,1.1,8.07,4.34,12.03,5.98,4.23,1.75,9.1,2.08,12.66,4.52s5.68,6.95,8.55,10.33,6.86,5.95,8.77,10.14c1.75,3.82,1.22,8.63,2.16,13.26.83,4.07,3.3,8.24,3.44,12.98"/>
        <path class="cls-11" d="M218.11,344.75c.15-4.74,2.63-8.91,3.46-12.98.94-4.62.42-9.44,2.17-13.26,1.92-4.18,5.97-6.84,8.77-10.14s4.85-7.79,8.54-10.33,8.42-2.78,12.65-4.53c3.95-1.64,7.56-4.88,12.02-5.98,4.16-1.02,8.9.13,13.44-.48,4.27-.58,8.5-2.97,13.05-3.23s8.82,1.64,13.36,1.64,9.03-1.88,13.36-1.64c4.55.26,8.79,2.65,13.06,3.23,4.54.61,9.28-.54,13.45.48,4.47,1.1,8.07,4.34,12.03,5.98,4.23,1.75,9.1,2.08,12.66,4.52s5.68,6.95,8.55,10.33,6.86,5.95,8.77,10.14c1.75,3.82,1.22,8.63,2.16,13.26.83,4.07,3.3,8.24,3.44,12.98"/>
      </g>
    </g>
    <g id="oreilles">
      <g>
        <path class="cls-7" d="M257.85,364.35s-12.07,43.01-30.29,50.25c-18.22,7.25-38.86-1.65-46.11-19.87-7.25-18.22,1.65-38.86,19.87-46.11,18.22-7.25,56.52,15.73,56.52,15.73Z"/>
        <path class="cls-20" d="M240.58,371.22s-6.61,23.56-16.59,27.53c-9.98,3.97-21.29-.9-25.26-10.89s.9-21.29,10.89-25.26,30.97,8.62,30.97,8.62Z"/>
        <path class="cls-12" d="M217.89,384.55c.1-7.81,5.82-13.17,22.7-13.33-19.31-13.46-34.47-10.23-43.91,3.31"/>
      </g>
      <g>
        <path class="cls-7" d="M352.59,363.16s12.07,43.01,30.29,50.25c18.22,7.25,38.86-1.65,46.11-19.87,7.25-18.22-1.65-38.86-19.87-46.11-18.22-7.25-56.52,15.73-56.52,15.73Z"/>
        <path class="cls-20" d="M369.86,370.03s6.61,23.56,16.59,27.53c9.98,3.97,21.29-.9,25.26-10.89s-.9-21.29-10.89-25.26c-9.98-3.97-30.97,8.62-30.97,8.62Z"/>
        <path class="cls-12" d="M392.55,383.36c-.1-7.81-5.82-13.17-22.7-13.33,19.31-13.46,34.47-10.23,43.91,3.31"/>
      </g>
    </g>
    <g id="glasses">
      <g>
        <circle class="cls-8" cx="257.85" cy="356.59" r="44.91"/>
        <circle class="cls-21" cx="257.85" cy="356.59" r="35.17"/>
        <path class="cls-17" d="M269.17,323.29c-3.83,3.7-7.8,7.26-11.17,11.38-5.3,6.47-9.07,15.11-6.77,23.15,1.48,5.17,5.32,9.63,5.69,14.99.34,4.85-2.27,9.41-5.29,13.22-1.19,1.49-2.47,2.91-3.81,4.27,3.18.94,6.54,1.46,10.02,1.46.39,0,.78-.02,1.17-.03,1.07-1.47,2.14-2.94,3.21-4.41,1.42-1.95,2.86-3.95,3.65-6.23.67-1.95.84-4.04,1-6.1.24-3.13.48-6.3-.08-9.39-.7-3.81-2.6-7.39-2.71-11.26-.14-5.11,2.87-9.76,6.12-13.71,3.19-3.88,6.74-7.46,10.57-10.7-3.37-2.9-7.3-5.17-11.6-6.63Z"/>
      </g>
      <g>
        <circle class="cls-8" cx="351.46" cy="355.04" r="44.91"/>
        <circle class="cls-21" cx="351.46" cy="355.04" r="35.17"/>
        <path class="cls-17" d="M362.79,321.74c-3.83,3.7-7.8,7.26-11.17,11.38-5.3,6.47-9.07,15.11-6.77,23.15,1.48,5.17,5.32,9.63,5.69,14.99.34,4.85-2.27,9.41-5.29,13.22-1.19,1.49-2.47,2.91-3.81,4.27,3.18.94,6.54,1.46,10.02,1.46.39,0,.78-.02,1.17-.03,1.07-1.47,2.14-2.94,3.21-4.41,1.42-1.95,2.86-3.95,3.65-6.23.67-1.95.84-4.04,1-6.1.24-3.13.48-6.3-.08-9.39-.7-3.81-2.6-7.39-2.71-11.26-.14-5.11,2.87-9.76,6.12-13.71,3.19-3.88,6.74-7.46,10.57-10.7-3.37-2.9-7.3-5.17-11.6-6.63Z"/>
      </g>
    </g>
    <g id="piercings">
      <circle class="cls-14" cx="286.6" cy="412.03" r="1.73"/>
      <circle class="cls-14" cx="216.89" cy="410.3" r="1.73"/>
      <circle class="cls-14" cx="207.43" cy="407.78" r="1.73"/>
      <circle class="cls-14" cx="199.2" cy="403.76" r="1.73"/>
      <circle class="cls-14" cx="392.05" cy="408.56" r="1.73"/>
      <circle class="cls-14" cx="401.75" cy="406.22" r="1.73"/>
      <circle class="cls-14" cx="422.19" cy="372.39" r="1.73"/>
    </g>
    <path id="nez" class="cls-11" d="M296.03,380.24c6.02-4.92,13.47-4.38,18.26,0"/>
    <g id="frange">
      <path class="cls-9" d="M394.23,336.79c-60-11.83-82.67-33.95-89.98-43.64-1.1-1.46-3.39-1-3.83.78-3.02,12.22-17.41,40.69-86.08,43.47-1.81.07-3.13-1.69-2.54-3.4l16.21-46.83c.18-.52.55-.95,1.04-1.21l72.68-37.92c.64-.34,1.41-.33,2.05.03l75.14,41.66c.44.24.78.64.97,1.1l16.79,43.05c.62,1.59-.77,3.24-2.44,2.91Z"/>
      <polyline class="cls-10" points="210.58 337.53 228.29 286.36 302.76 247.51 379.6 290.11 398.09 337.53"/>
      <path class="cls-11" d="M398.09,337.53c-81.65-15.09-96.88-49.12-96.88-49.12,0,0,.84,46.73-90.64,49.12"/>
    </g>
    <g id="meche_droite" data-name="meche droite">
      <path class="cls-18" d="M394.23,338.89s4.59,59.79-22.27,88.96c0,0,37.15-43.06,37.19-83.45"/>
      <path class="cls-21" d="M392.78,339.27c.55,7.26.38,14.62-.04,21.88-.87,15.06-3.25,30.31-8.74,44.43-3.18,8.2-7.51,16.02-13.47,22.54l2.85-.55c4.62-5.36,8.74-11.2,12.64-17.08,8.25-12.44,15.42-25.82,20.01-40.07,2.75-8.53,4.53-17.43,4.57-26.42,0-.35-2.89.02-2.9.78-.06,16.03-5.56,31.65-12.65,45.84-5.59,11.19-12.36,21.82-19.94,31.76-1.48,1.94-2.98,3.88-4.58,5.73-.31.36,1.07.21,1.14.2.58-.11,1.3-.29,1.71-.74,10.71-11.7,16.14-27.35,19.2-42.65,2.54-12.69,3.54-25.72,3.38-38.65-.03-2.59-.09-5.19-.28-7.77-.03-.42-2.95.07-2.9.78h0Z"/>
    </g>
    <g id="meche_gauche" data-name="meche gauche">
      <path class="cls-18" d="M215.73,338.89s-4.59,59.79,22.27,88.96c0,0-37.15-43.06-37.19-83.45"/>
      <path class="cls-21" d="M214.28,339.27c-.56,7.3-.38,14.71.05,22.01.88,15.06,3.27,30.31,8.75,44.42,3.2,8.24,7.55,16.08,13.55,22.62.48.53,2.96-.7,2.82-.86-4.59-5.32-8.69-11.12-12.56-16.96-8.25-12.43-15.42-25.79-20.03-40.01-2.77-8.55-4.57-17.46-4.6-26.47,0-.36-2.9.02-2.9.78.06,16.01,5.53,31.62,12.6,45.8,5.61,11.25,12.4,21.93,20.02,31.92,1.48,1.94,2.98,3.88,4.58,5.73l2.82-.86c-10.75-11.73-16.16-27.54-19.19-42.9-2.48-12.6-3.46-25.53-3.29-38.37.03-2.53.09-5.08.28-7.61.02-.29-2.84-.02-2.9.78h0Z"/>
    </g>
  </g>
</svg>